<svg xmlns="http://www.w3.org/2000/svg" viewBox="0 0 96 96">
  <defs>
    <linearGradient id="folder" x1="18" y1="12" x2="76" y2="84" gradientUnits="userSpaceOnUse">
      <stop stop-color="#d8ebff"/>
      <stop offset="1" stop-color="#72a9ed"/>
    </linearGradient>
  </defs>
  <path fill="#5089d0" d="M10 29a9 9 0 0 1 9-9h22l8 9h28a9 9 0 0 1 9 9v7H10V29Z"/>
  <path fill="url(#folder)" d="M10 39a8 8 0 0 1 8-8h60a8 8 0 0 1 8 8l-6 37a9 9 0 0 1-9 8H25a9 9 0 0 1-9-8l-6-37Z"/>
  <path fill="none" stroke="#fff" stroke-linecap="round" stroke-width="5" d="M28 54h40M28 66h27" opacity=".72"/>
</svg>
